<svg xmlns="http://www.w3.org/2000/svg" viewBox="0 0 134.55712 57.00381">
  <path fill="#00a9ff" fill-rule="evenodd" d="M42.8336 42.7538l19-42.75 31.67656 57H57.0836zM0 .08894h27L0 28.6213z"/>
  <path fill="#ff8900" fill-rule="evenodd" d="M28.5.0038H57l-57 57v-26.882z"/>
  <path fill="#00a9ff" fill-rule="evenodd" d="M28.5 30.0038l27 27h-54z"/>
  <g fill="#ff8900">
    <path fill-rule="evenodd" d="M84.20713 38h50.35V0H82.45v34.83643L84.20713 38z"/>
    <path d="M92.41758 52.7751a26.0534 19 0 0 0 16.0869 4.08017 26.0534 19 0 0 0 26.05265-19 26.0534 19 0 0 0-26.05264-19 26.0534 19 0 0 0-25.79103 16.45616l9.7041 17.46367z"/>
  </g>
</svg>
